<svg xmlns="http://www.w3.org/2000/svg" width="16.712" height="18.65" viewBox="0 0 16.712 18.65">
  <g id="Notifications" transform="translate(0.75 0.75)">
    <path id="Subtraction_7" data-name="Subtraction 7" d="M2.232,1.231h-1A1.233,1.233,0,0,1,0,0H3.463A1.233,1.233,0,0,1,2.232,1.231Z" transform="translate(5.874 16.669)" fill="#8d8d8d"/>
    <path id="Path_191" data-name="Path 191" d="M1343.153,1135.693c.329.434.822,1.268,3.259,1.268h8.669c2.338,0,3.026-.659,3.284-1.268-2.147-2.211-1.342-3.73-1.379-5.634s-.587-7.287-6.186-7.287-6.135,5.432-6.144,7.287C1344.644,1131.985,1345.211,1133.632,1343.153,1135.693Z" transform="translate(-1343.153 -1122.771)" fill="none" stroke="#8d8d8d" stroke-linecap="round" stroke-linejoin="round" stroke-width="1.5"/>
  </g>
</svg>
